<svg width="18" height="19" viewBox="0 0 18 19" fill="none" xmlns="http://www.w3.org/2000/svg">
<path d="M18 8.59294L18 17.2601C18 17.6579 17.842 18.0395 17.5607 18.3208C17.2794 18.6021 16.8978 18.7601 16.5 18.7601H12.75C12.3522 18.7601 11.9706 18.6021 11.6893 18.3208C11.408 18.0395 11.25 17.6579 11.25 17.2601L11.25 13.5101C11.25 13.3112 11.171 13.1204 11.0303 12.9798C10.8897 12.8391 10.6989 12.7601 10.5 12.7601H7.5C7.30109 12.7601 7.11032 12.8391 6.96967 12.9798C6.82902 13.1204 6.75 13.3112 6.75 13.5101L6.75 17.2601C6.75 17.6579 6.59196 18.0395 6.31066 18.3208C6.02936 18.6021 5.64782 18.7601 5.25 18.7601H1.5C1.10218 18.7601 0.720644 18.6021 0.43934 18.3208C0.158035 18.0395 1.73323e-08 17.6579 1.73323e-08 17.2601L1.73323e-08 8.59294C-3.15402e-05 8.38534 0.0430305 8.17999 0.126461 7.98989C0.209891 7.79979 0.331873 7.62908 0.484687 7.48856L7.98469 0.412312L7.995 0.401999C8.27113 0.150874 8.63097 0.0117188 9.00422 0.0117188C9.37747 0.0117188 9.7373 0.150874 10.0134 0.401999C10.0166 0.405668 10.0201 0.409113 10.0237 0.412312L17.5237 7.48856C17.675 7.62982 17.7954 7.80087 17.8774 7.99093C17.9594 8.18099 18.0011 8.38596 18 8.59294Z" fill="#277C78"/>
</svg>
