<svg width="57" height="25" viewBox="0 0 57 25" fill="none" xmlns="http://www.w3.org/2000/svg">
<path d="M10.56 15.44C13.12 15.44 14.4 14.56 14.4 12.8C14.4 11.04 13.12 10.16 10.56 10.16C8 10.16 6.72 11.04 6.72 12.8C6.72 14.56 8 15.44 10.56 15.44ZM6.72 5.6V7.352C8.048 6.024 9.968 5.36 12.48 5.36C14.992 5.36 16.912 6.016 18.24 7.328C19.52 8.608 20.16 10.432 20.16 12.8C20.16 15.168 19.52 16.992 18.24 18.272C16.912 19.584 14.992 20.24 12.48 20.24C9.968 20.24 8.048 19.576 6.72 18.248V24.8H0.96V5.6H6.72ZM26.8884 12.8C26.8884 14.56 28.1684 15.44 30.7284 15.44C33.2884 15.44 34.5684 14.56 34.5684 12.8C34.5684 11.04 33.2884 10.16 30.7284 10.16C28.1684 10.16 26.8884 11.04 26.8884 12.8ZM34.5684 7.352V0.8H40.3284V20H34.5684V18.248C33.2404 19.576 31.3204 20.24 28.8084 20.24C26.2964 20.24 24.3764 19.584 23.0484 18.272C21.7684 16.992 21.1284 15.168 21.1284 12.8C21.1284 10.432 21.7684 8.608 23.0484 7.328C24.3764 6.016 26.2964 5.36 28.8084 5.36C31.3204 5.36 33.2404 6.024 34.5684 7.352ZM44.8969 20V10.4H41.5369V5.6H44.8969C44.8969 3.6 45.5609 2.168 46.8889 1.304C48.1529 0.487999 50.2089 0.079999 53.0569 0.079999C54.2569 0.079999 55.3769 0.183999 56.4169 0.391999V4.616C55.7609 4.472 54.8809 4.4 53.7769 4.4C51.8889 4.4 50.8729 4.8 50.7289 5.6H56.4169V10.4H50.6569V20H44.8969Z" fill="white"/>
</svg>
