<svg width="165" height="25" viewBox="0 0 165 25" fill="none" xmlns="http://www.w3.org/2000/svg">
<path d="M10.56 15.44C13.12 15.44 14.4 14.56 14.4 12.8C14.4 11.04 13.12 10.16 10.56 10.16C8 10.16 6.72 11.04 6.72 12.8C6.72 14.56 8 15.44 10.56 15.44ZM6.72 5.6V7.352C8.048 6.024 9.968 5.36 12.48 5.36C14.992 5.36 16.912 6.016 18.24 7.328C19.52 8.608 20.16 10.432 20.16 12.8C20.16 15.168 19.52 16.992 18.24 18.272C16.912 19.584 14.992 20.24 12.48 20.24C9.968 20.24 8.048 19.576 6.72 18.248V24.8H0.96V5.6H6.72ZM26.8884 12.8C26.8884 14.56 28.1684 15.44 30.7284 15.44C33.2884 15.44 34.5684 14.56 34.5684 12.8C34.5684 11.04 33.2884 10.16 30.7284 10.16C28.1684 10.16 26.8884 11.04 26.8884 12.8ZM34.5684 7.352V0.8H40.3284V20H34.5684V18.248C33.2404 19.576 31.3204 20.24 28.8084 20.24C26.2964 20.24 24.3764 19.584 23.0484 18.272C21.7684 16.992 21.1284 15.168 21.1284 12.8C21.1284 10.432 21.7684 8.608 23.0484 7.328C24.3764 6.016 26.2964 5.36 28.8084 5.36C31.3204 5.36 33.2404 6.024 34.5684 7.352ZM50.7289 5.6H62.1769V20H56.4169V10.4H50.6569V20H44.8969V10.4H41.5369V5.6H44.8969C44.8969 3.536 45.6409 2.104 47.1289 1.304C48.6649 0.487999 51.4409 0.079999 55.4569 0.079999C56.3369 0.079999 57.3849 0.111999 58.6009 0.175999C59.8169 0.239999 60.6889 0.311999 61.2169 0.391999V4.616C60.7849 4.568 60.0089 4.52 58.8889 4.472C57.7689 4.424 56.8649 4.4 56.1769 4.4C54.0169 4.4 52.5769 4.48 51.8569 4.64C51.1849 4.8 50.8089 5.12 50.7289 5.6ZM70.095 7.208C71.375 5.976 73.215 5.36 75.615 5.36C78.047 5.36 79.903 5.992 81.183 7.256C82.431 8.488 83.055 10.248 83.055 12.536V20H77.295V12.536C77.295 10.888 76.095 10.064 73.695 10.064C71.295 10.064 70.095 10.888 70.095 12.536V20H64.335V5.6H70.095V7.208ZM90.0056 12.8C90.0056 14.56 91.2856 15.44 93.8456 15.44C96.4056 15.44 97.6856 14.56 97.6856 12.8C97.6856 11.04 96.4056 10.16 93.8456 10.16C91.2856 10.16 90.0056 11.04 90.0056 12.8ZM97.6856 7.352V5.6H103.446V20H97.6856V18.248C96.3576 19.576 94.4376 20.24 91.9256 20.24C89.4136 20.24 87.4936 19.584 86.1656 18.272C84.8856 16.992 84.2456 15.168 84.2456 12.8C84.2456 10.432 84.8856 8.608 86.1656 7.328C87.4936 6.016 89.4136 5.36 91.9256 5.36C94.4376 5.36 96.3576 6.024 97.6856 7.352ZM111.134 7.208C112.414 5.976 114.254 5.36 116.654 5.36C119.086 5.36 120.942 5.992 122.222 7.256C123.47 8.488 124.094 10.248 124.094 12.536V20H118.334V12.536C118.334 10.888 117.134 10.064 114.734 10.064C112.334 10.064 111.134 10.888 111.134 12.536V20H105.374V5.6H111.134V7.208ZM141.797 18.464C140.149 19.648 137.845 20.24 134.885 20.24C131.733 20.24 129.333 19.584 127.685 18.272C126.085 16.992 125.285 15.168 125.285 12.8C125.285 10.432 126.085 8.608 127.685 7.328C129.333 6.016 131.733 5.36 134.885 5.36C137.845 5.36 140.149 5.952 141.797 7.136C143.381 8.288 144.253 9.936 144.413 12.08H138.581C138.197 10.8 136.965 10.16 134.885 10.16C132.325 10.16 131.045 11.04 131.045 12.8C131.045 14.56 132.325 15.44 134.885 15.44C136.965 15.44 138.197 14.8 138.581 13.52H144.413C144.253 15.664 143.381 17.312 141.797 18.464ZM158.523 11.36C158.011 10.24 156.827 9.68 154.971 9.68C153.115 9.68 151.931 10.24 151.419 11.36H158.523ZM164.475 13.76H151.299C151.683 15.2 152.907 15.92 154.971 15.92C156.459 15.92 157.523 15.52 158.163 14.72H164.331C163.483 18.4 160.363 20.24 154.971 20.24C151.835 20.24 149.435 19.584 147.771 18.272C146.171 16.992 145.371 15.168 145.371 12.8C145.371 10.432 146.171 8.608 147.771 7.328C149.435 6.016 151.835 5.36 154.971 5.36C158.123 5.36 160.523 6.016 162.171 7.328C163.771 8.608 164.571 10.432 164.571 12.8C164.571 12.944 164.563 13.104 164.547 13.28L164.475 13.76Z" fill="white"/>
</svg>
