<svg width="35" height="35" viewBox="0 0 35 35" fill="none" xmlns="http://www.w3.org/2000/svg">
<circle cx="17.5" cy="17.5" r="17.5" fill="#201F24"/>
<path d="M10.4 19.1C11.4667 19.1 12 18.7333 12 18C12 17.2667 11.4667 16.9 10.4 16.9C9.33333 16.9 8.8 17.2667 8.8 18C8.8 18.7333 9.33333 19.1 10.4 19.1ZM8.8 15V15.73C9.35333 15.1767 10.1533 14.9 11.2 14.9C12.2467 14.9 13.0467 15.1733 13.6 15.72C14.1333 16.2533 14.4 17.0133 14.4 18C14.4 18.9867 14.1333 19.7467 13.6 20.28C13.0467 20.8267 12.2467 21.1 11.2 21.1C10.1533 21.1 9.35333 20.8233 8.8 20.27V23H6.4V15H8.8ZM17.2035 18C17.2035 18.7333 17.7368 19.1 18.8035 19.1C19.8702 19.1 20.4035 18.7333 20.4035 18C20.4035 17.2667 19.8702 16.9 18.8035 16.9C17.7368 16.9 17.2035 17.2667 17.2035 18ZM20.4035 15.73V13H22.8035V21H20.4035V20.27C19.8502 20.8233 19.0502 21.1 18.0035 21.1C16.9568 21.1 16.1568 20.8267 15.6035 20.28C15.0702 19.7467 14.8035 18.9867 14.8035 18C14.8035 17.0133 15.0702 16.2533 15.6035 15.72C16.1568 15.1733 16.9568 14.9 18.0035 14.9C19.0502 14.9 19.8502 15.1767 20.4035 15.73ZM24.707 21V17H23.307V15H24.707C24.707 14.1667 24.9837 13.57 25.537 13.21C26.0637 12.87 26.9204 12.7 28.107 12.7C28.607 12.7 29.0737 12.7433 29.507 12.83V14.59C29.2337 14.53 28.867 14.5 28.407 14.5C27.6204 14.5 27.197 14.6667 27.137 15H29.507V17H27.107V21H24.707Z" fill="white"/>
</svg>
